<svg xmlns="http://www.w3.org/2000/svg" viewBox="0 0 500 500">
  <!-- 배경: 투명 -->
  <rect width="500" height="500" fill="none" />
  
  <!-- 로고 메인 형태 -->
  <g transform="translate(100, 100)">
    <!-- 그림자 효과 -->
    <filter id="drop-shadow" x="-20%" y="-20%" width="140%" height="140%">
      <feGaussianBlur in="SourceAlpha" stdDeviation="8" />
      <feOffset dx="2" dy="4" result="offsetblur" />
      <feComponentTransfer>
        <feFuncA type="linear" slope="0.3" />
      </feComponentTransfer>
      <feMerge>
        <feMergeNode />
        <feMergeNode in="SourceGraphic" />
      </feMerge>
    </filter>
    
    <!-- 로고 메인 그라데이션 -->
    <defs>
      <linearGradient id="mainGradient" x1="0%" y1="0%" x2="100%" y2="100%">
        <stop offset="0%" stop-color="#FF6B6B" />
        <stop offset="50%" stop-color="#A05FFF" />
        <stop offset="100%" stop-color="#4CC9F0" />
      </linearGradient>
      
      <!-- 보조 그라데이션 -->
      <linearGradient id="accentGradient" x1="100%" y1="0%" x2="0%" y2="100%">
        <stop offset="0%" stop-color="#4CC9F0" />
        <stop offset="50%" stop-color="#A05FFF" />
        <stop offset="100%" stop-color="#FF6B6B" />
      </linearGradient>
      
      <!-- 글래스모피즘 효과를 위한 방사형 그라데이션 -->
      <radialGradient id="glassGradient" cx="50%" cy="50%" r="50%" fx="50%" fy="50%">
        <stop offset="0%" stop-color="rgba(255,255,255,0.25)" />
        <stop offset="100%" stop-color="rgba(255,255,255,0)" />
      </radialGradient>
    </defs>
    
    <!-- 메인 모양 -->
    <path d="M30,30 C70,10 120,20 140,65 C150,110 120,150 75,150 C30,150 10,120 10,75 C10,40 30,30 30,30 Z" 
          fill="url(#mainGradient)" 
          filter="url(#drop-shadow)" />
    
    <!-- 하이라이트 효과 -->
    <path d="M40,40 C70,25 100,32 120,65 C128,95 110,125 75,125 C45,125 30,105 30,75 C30,50 40,40 40,40 Z" 
          fill="url(#glassGradient)" 
          opacity="0.7" />
    
    <!-- 로고 내부 액센트 -->
    <path d="M60,60 Q85,55 100,70 T105,100 Q90,110 75,105 T60,60" 
          fill="url(#accentGradient)" 
          opacity="0.6" />
    
    <!-- 로고 텍스트 -->
    <text x="75" y="85" 
          font-family="Arial, sans-serif" 
          font-weight="bold" 
          font-size="30" 
          text-anchor="middle" 
          fill="white">RC</text>
  </g>
  
  <!-- 앱 이름 텍스트 -->
  <text x="250" y="300" 
        font-family="Arial, sans-serif" 
        font-weight="bold" 
        font-size="36" 
        text-anchor="middle" 
        fill="#333333">RandyColor</text>
  
  <!-- 태그라인 -->
  <text x="250" y="330" 
        font-family="Arial, sans-serif" 
        font-size="16" 
        text-anchor="middle" 
        fill="#666666">Gradient Creator</text>
</svg>