<svg xmlns="http://www.w3.org/2000/svg" viewBox="0 0 400 400">
  <!-- 배경: 투명 -->
  <rect width="400" height="400" fill="none" />
  
  <!-- 로고 메인 형태 -->
  <g transform="translate(20, 20)">
    <!-- 그림자 효과 -->
    <filter id="drop-shadow" x="-20%" y="-20%" width="140%" height="140%">
      <feGaussianBlur in="SourceAlpha" stdDeviation="8" />
      <feOffset dx="2" dy="4" result="offsetblur" />
      <feComponentTransfer>
        <feFuncA type="linear" slope="0.3" />
      </feComponentTransfer>
      <feMerge>
        <feMergeNode />
        <feMergeNode in="SourceGraphic" />
      </feMerge>
    </filter>
    
    <!-- 로고 메인 그라데이션 -->
    <defs>
      <linearGradient id="mainGradient" x1="0%" y1="0%" x2="100%" y2="100%">
        <stop offset="0%" stop-color="#FF6B6B" />
        <stop offset="50%" stop-color="#A05FFF" />
        <stop offset="100%" stop-color="#4CC9F0" />
      </linearGradient>
      
      <!-- 보조 그라데이션 -->
      <linearGradient id="accentGradient" x1="100%" y1="0%" x2="0%" y2="100%">
        <stop offset="0%" stop-color="#4CC9F0" />
        <stop offset="50%" stop-color="#A05FFF" />
        <stop offset="100%" stop-color="#FF6B6B" />
      </linearGradient>
      
      <!-- 글래스모피즘 효과를 위한 방사형 그라데이션 -->
      <radialGradient id="glassGradient" cx="50%" cy="50%" r="50%" fx="50%" fy="50%">
        <stop offset="0%" stop-color="rgba(255,255,255,0.25)" />
        <stop offset="100%" stop-color="rgba(255,255,255,0)" />
      </radialGradient>
    </defs>
    
    <!-- 메인 모양 - 여백을 줄이기 위해 크기 확대 -->
    <path d="M10,10 C100,0 200,0 290,40 C350,90 350,190 330,260 C290,330 220,360 150,360 C80,360 20,330 5,260 C-10,190 0,90 10,10 Z" 
          fill="url(#mainGradient)" 
          filter="url(#drop-shadow)" />
    
    <!-- 하이라이트 효과 -->
    <path d="M30,40 C110,20 190,30 255,70 C310,120 310,200 290,260 C255,320 190,335 130,335 C70,335 25,310 15,260 C5,200 20,120 30,40 Z" 
          fill="url(#glassGradient)" 
          opacity="0.7" />
    
    <!-- 로고 내부 액센트 -->
    <path d="M90,90 Q160,70 220,100 T260,190 Q200,250 150,240 T90,90" 
          fill="url(#accentGradient)" 
          opacity="0.6" />
    
    <!-- 작은 장식 요소들 -->
    <circle cx="80" cy="110" r="20" fill="rgba(255,255,255,0.25)" />
    <circle cx="240" cy="200" r="15" fill="rgba(255,255,255,0.2)" />
    <circle cx="160" cy="250" r="18" fill="rgba(255,255,255,0.15)" />
    
    <!-- RC 텍스트 - 크기 조정 -->
    <text x="180" y="180" 
          font-family="Arial, sans-serif" 
          font-weight="bold" 
          font-size="80" 
          text-anchor="middle" 
          fill="white">RC</text>
  </g>
</svg>
